# xmcd
#
# Track frame offsets: 
#        150
#        12084
#        24529
#        36762
#        46485
#        58707
#        65813
#        79197
#        92619
#        106093
#        130395
#        147158
#        157057
#        169835
#        182467
#        191454
#        203488
#        215723
#        227791
#        237652
#        247652
#        259219
#        267229
#        276338
#        289044
#        301573
#        311889
#        320656
#
# Disc length: 4418 seconds
#
# Revision: 1
# Processed by: cddbd v1.5.2PL0 Copyright (c) Steve Scherf et al.
# Submitted via: ExactAudioCopyFreeDBPlugin 1.0
#
DISCID=9511401c
DTITLE=Various Artist - Rockabilly Hall Of Fame: Volume 3
DYEAR=2000
DGENRE=Rock
TTITLE0=DiMaggio Bros. - I Need Your Love Tonight
TTITLE1=Wanda Jackson - Rock-A-Billy Hound Dog
TTITLE2=Billy Swan - Put A Move On
TTITLE3=Nick Gilroy Kombo - Come Back
TTITLE4=Toini and The Tom Cats - That's How Much I Love You
TTITLE5=Bobby Lowell - I'm Movin' On
TTITLE6=Lou Hobbs - Zydeco-Billy
TTITLE7=Tom Mathis - Gettin' Some Gone
TTITLE8=The Rimshots - One More Beer
TTITLE9=Tom Baustian - Rockabilly Blue
TTITLE10=The Rockin' Roary - Rock 'N' Roll Devil
TTITLE11=Steve Aynsley with Darrel Higham - Hard Knocks
TTITLE12=The Railmen - Only Time Will Tell
TTITLE13=Junior "Simone" DiMaggio - Rock 'N' Roll Ruby
TTITLE14=Bob E. Rock - Humes Senior High
TTITLE15=Craig Michaels - Rockabilly Crazy
TTITLE16=Zane Raney - Catfish Baby
TTITLE17=Hack and The '57s - Rock-N-The House
TTITLE18=The Convertibles - Hotrod Road
TTITLE19=Hicksville Bombers - The Prettiest Girl In Town
TTITLE20=Alan Mills with Darrel Higham - Blue Days, Black Nights
TTITLE21=The Atomics - Mean When I'm Mad
TTITLE22=Rockin' Rooster - I Will Always Care For You
TTITLE23=Johnny Z and the Uptown Savages - Rocket Drivin' Daddy
TTITLE24=Larry Merritt - Smooth Talkin' Lines
TTITLE25=Jerry Lee Merritt - Black Dress
TTITLE26=Ricky and The Rockets - Don't Satisfy My Soul
TTITLE27=The Drumless - Everyday
EXTD=
EXTT0=
EXTT1=
EXTT2=
EXTT3=
EXTT4=
EXTT5=
EXTT6=
EXTT7=
EXTT8=
EXTT9=
EXTT10=
EXTT11=
EXTT12=
EXTT13=
EXTT14=
EXTT15=
EXTT16=
EXTT17=
EXTT18=
EXTT19=
EXTT20=
EXTT21=
EXTT22=
EXTT23=
EXTT24=
EXTT25=
EXTT26=
EXTT27=
PLAYORDER=
